<svg width="101" height="21" viewBox="0 0 101 21" fill="none" xmlns="http://www.w3.org/2000/svg">
<path d="M9.724 9.262C9.63733 9.40067 9.54633 9.50033 9.451 9.561C9.35567 9.613 9.23433 9.639 9.087 9.639C8.931 9.639 8.762 9.59567 8.58 9.509C8.40667 9.42233 8.203 9.327 7.969 9.223C7.735 9.11033 7.46633 9.01067 7.163 8.924C6.86833 8.83733 6.51733 8.794 6.11 8.794C5.47733 8.794 4.979 8.92833 4.615 9.197C4.25967 9.46567 4.082 9.81667 4.082 10.25C4.082 10.536 4.173 10.7787 4.355 10.978C4.54567 11.1687 4.79267 11.3377 5.096 11.485C5.408 11.6323 5.759 11.7667 6.149 11.888C6.539 12.0007 6.93333 12.1263 7.332 12.265C7.73933 12.4037 8.138 12.564 8.528 12.746C8.918 12.9193 9.26467 13.1447 9.568 13.422C9.88 13.6907 10.127 14.0157 10.309 14.397C10.4997 14.7783 10.595 15.2377 10.595 15.775C10.595 16.4163 10.478 17.01 10.244 17.556C10.0187 18.0933 9.68067 18.5613 9.23 18.96C8.77933 19.35 8.22033 19.6577 7.553 19.883C6.89433 20.0997 6.13167 20.208 5.265 20.208C4.80567 20.208 4.355 20.1647 3.913 20.078C3.47967 20 3.05933 19.8873 2.652 19.74C2.25333 19.5927 1.88067 19.4193 1.534 19.22C1.196 19.0207 0.897 18.804 0.637 18.57L1.378 17.348C1.47333 17.2007 1.586 17.088 1.716 17.01C1.846 16.932 2.01067 16.893 2.21 16.893C2.40933 16.893 2.59567 16.9493 2.769 17.062C2.951 17.1747 3.159 17.296 3.393 17.426C3.627 17.556 3.9 17.6773 4.212 17.79C4.53267 17.9027 4.93567 17.959 5.421 17.959C5.80233 17.959 6.12733 17.9157 6.396 17.829C6.67333 17.7337 6.89867 17.6123 7.072 17.465C7.254 17.3177 7.384 17.1487 7.462 16.958C7.54867 16.7587 7.592 16.555 7.592 16.347C7.592 16.035 7.49667 15.7793 7.306 15.58C7.124 15.3807 6.877 15.2073 6.565 15.06C6.26167 14.9127 5.91067 14.7827 5.512 14.67C5.122 14.5487 4.719 14.4187 4.303 14.28C3.89567 14.1413 3.49267 13.981 3.094 13.799C2.704 13.6083 2.353 13.37 2.041 13.084C1.73767 12.798 1.49067 12.447 1.3 12.031C1.118 11.615 1.027 11.1123 1.027 10.523C1.027 9.977 1.13533 9.457 1.352 8.963C1.56867 8.469 1.885 8.04 2.301 7.676C2.72567 7.30333 3.25 7.00867 3.874 6.792C4.50667 6.56667 5.23467 6.454 6.058 6.454C6.97667 6.454 7.813 6.60567 8.567 6.909C9.321 7.21233 9.94933 7.611 10.452 8.105L9.724 9.262ZM18.9138 6.454C19.9018 6.454 20.7988 6.61433 21.6048 6.935C22.4194 7.25567 23.1128 7.71067 23.6848 8.3C24.2654 8.88933 24.7118 9.60867 25.0238 10.458C25.3358 11.3073 25.4918 12.2563 25.4918 13.305C25.4918 14.3623 25.3358 15.3157 25.0238 16.165C24.7118 17.0143 24.2654 17.738 23.6848 18.336C23.1128 18.934 22.4194 19.3933 21.6048 19.714C20.7988 20.0347 19.9018 20.195 18.9138 20.195C17.9171 20.195 17.0114 20.0347 16.1968 19.714C15.3821 19.3933 14.6844 18.934 14.1038 18.336C13.5318 17.738 13.0854 17.0143 12.7648 16.165C12.4528 15.3157 12.2968 14.3623 12.2968 13.305C12.2968 12.2563 12.4528 11.3073 12.7648 10.458C13.0854 9.60867 13.5318 8.88933 14.1038 8.3C14.6844 7.71067 15.3821 7.25567 16.1968 6.935C17.0114 6.61433 17.9171 6.454 18.9138 6.454ZM18.9138 17.725C20.0231 17.725 20.8421 17.3523 21.3708 16.607C21.9081 15.8617 22.1768 14.7697 22.1768 13.331C22.1768 11.8923 21.9081 10.796 21.3708 10.042C20.8421 9.288 20.0231 8.911 18.9138 8.911C17.7871 8.911 16.9508 9.29233 16.4048 10.055C15.8674 10.809 15.5988 11.901 15.5988 13.331C15.5988 14.761 15.8674 15.853 16.4048 16.607C16.9508 17.3523 17.7871 17.725 18.9138 17.725ZM32.1336 20.208C30.9722 20.208 30.0796 19.883 29.4556 19.233C28.8402 18.5743 28.5326 17.6687 28.5326 16.516V9.067H27.1676C26.9942 9.067 26.8469 9.01067 26.7256 8.898C26.6042 8.78533 26.5436 8.61633 26.5436 8.391V7.117L28.6886 6.766L29.3646 3.126C29.4079 2.95267 29.4902 2.81833 29.6116 2.723C29.7329 2.62767 29.8889 2.58 30.0796 2.58H31.7436V6.779H35.3056V9.067H31.7436V16.295C31.7436 16.711 31.8432 17.036 32.0426 17.27C32.2506 17.504 32.5322 17.621 32.8876 17.621C33.0869 17.621 33.2516 17.5993 33.3816 17.556C33.5202 17.504 33.6372 17.452 33.7326 17.4C33.8366 17.348 33.9276 17.3003 34.0056 17.257C34.0836 17.205 34.1616 17.179 34.2396 17.179C34.3349 17.179 34.4129 17.205 34.4736 17.257C34.5342 17.3003 34.5992 17.3697 34.6686 17.465L35.6306 19.025C35.1626 19.415 34.6252 19.7097 34.0186 19.909C33.4119 20.1083 32.7836 20.208 32.1336 20.208ZM44.4074 14.306C43.4801 14.3493 42.7001 14.4317 42.0674 14.553C41.4347 14.6657 40.9277 14.813 40.5464 14.995C40.1651 15.177 39.8921 15.3893 39.7274 15.632C39.5627 15.8747 39.4804 16.139 39.4804 16.425C39.4804 16.9883 39.6451 17.3913 39.9744 17.634C40.3124 17.8767 40.7501 17.998 41.2874 17.998C41.9461 17.998 42.5137 17.881 42.9904 17.647C43.4757 17.4043 43.9481 17.0403 44.4074 16.555V14.306ZM37.0494 8.521C38.5834 7.117 40.4294 6.415 42.5874 6.415C43.3674 6.415 44.0651 6.545 44.6804 6.805C45.2957 7.05633 45.8157 7.41167 46.2404 7.871C46.6651 8.32167 46.9857 8.86333 47.2024 9.496C47.4277 10.1287 47.5404 10.822 47.5404 11.576V20H46.0844C45.7811 20 45.5471 19.9567 45.3824 19.87C45.2177 19.7747 45.0877 19.5883 44.9924 19.311L44.7064 18.349C44.3684 18.6523 44.0391 18.921 43.7184 19.155C43.3977 19.3803 43.0641 19.571 42.7174 19.727C42.3707 19.883 41.9981 20 41.5994 20.078C41.2094 20.1647 40.7761 20.208 40.2994 20.208C39.7361 20.208 39.2161 20.1343 38.7394 19.987C38.2627 19.831 37.8511 19.6013 37.5044 19.298C37.1577 18.9947 36.8891 18.6177 36.6984 18.167C36.5077 17.7163 36.4124 17.192 36.4124 16.594C36.4124 16.256 36.4687 15.9223 36.5814 15.593C36.6941 15.255 36.8761 14.9343 37.1274 14.631C37.3874 14.3277 37.7211 14.0417 38.1284 13.773C38.5357 13.5043 39.0341 13.2703 39.6234 13.071C40.2214 12.8717 40.9147 12.7113 41.7034 12.59C42.4921 12.46 43.3934 12.382 44.4074 12.356V11.576C44.4074 10.6833 44.2167 10.0247 43.8354 9.6C43.4541 9.16667 42.9037 8.95 42.1844 8.95C41.6644 8.95 41.2311 9.01067 40.8844 9.132C40.5464 9.25333 40.2474 9.392 39.9874 9.548C39.7274 9.69533 39.4891 9.82967 39.2724 9.951C39.0644 10.0723 38.8304 10.133 38.5704 10.133C38.3451 10.133 38.1544 10.0767 37.9984 9.964C37.8424 9.84267 37.7167 9.704 37.6214 9.548L37.0494 8.521ZM53.5935 8.976C54.0095 8.17867 54.5035 7.55467 55.0755 7.104C55.6475 6.64467 56.3235 6.415 57.1035 6.415C57.7188 6.415 58.2128 6.54933 58.5855 6.818L58.3775 9.223C58.3342 9.379 58.2692 9.49167 58.1825 9.561C58.1045 9.62167 57.9962 9.652 57.8575 9.652C57.7275 9.652 57.5325 9.63033 57.2725 9.587C57.0212 9.54367 56.7742 9.522 56.5315 9.522C56.1762 9.522 55.8598 9.574 55.5825 9.678C55.3052 9.782 55.0538 9.93367 54.8285 10.133C54.6118 10.3237 54.4168 10.5577 54.2435 10.835C54.0788 11.1123 53.9228 11.4287 53.7755 11.784V20H50.5645V6.662H52.4495C52.7788 6.662 53.0085 6.72267 53.1385 6.844C53.2685 6.95667 53.3552 7.16467 53.3985 7.468L53.5935 8.976ZM65.7849 6.454C66.7729 6.454 67.6699 6.61433 68.4759 6.935C69.2905 7.25567 69.9839 7.71067 70.5559 8.3C71.1365 8.88933 71.5829 9.60867 71.8949 10.458C72.2069 11.3073 72.3629 12.2563 72.3629 13.305C72.3629 14.3623 72.2069 15.3157 71.8949 16.165C71.5829 17.0143 71.1365 17.738 70.5559 18.336C69.9839 18.934 69.2905 19.3933 68.4759 19.714C67.6699 20.0347 66.7729 20.195 65.7849 20.195C64.7882 20.195 63.8825 20.0347 63.0679 19.714C62.2532 19.3933 61.5555 18.934 60.9749 18.336C60.4029 17.738 59.9565 17.0143 59.6359 16.165C59.3239 15.3157 59.1679 14.3623 59.1679 13.305C59.1679 12.2563 59.3239 11.3073 59.6359 10.458C59.9565 9.60867 60.4029 8.88933 60.9749 8.3C61.5555 7.71067 62.2532 7.25567 63.0679 6.935C63.8825 6.61433 64.7882 6.454 65.7849 6.454ZM65.7849 17.725C66.8942 17.725 67.7132 17.3523 68.2419 16.607C68.7792 15.8617 69.0479 14.7697 69.0479 13.331C69.0479 11.8923 68.7792 10.796 68.2419 10.042C67.7132 9.288 66.8942 8.911 65.7849 8.911C64.6582 8.911 63.8219 9.29233 63.2759 10.055C62.7385 10.809 62.4699 11.901 62.4699 13.331C62.4699 14.761 62.7385 15.853 63.2759 16.607C63.8219 17.3523 64.6582 17.725 65.7849 17.725ZM74.3446 18.232C74.3446 17.9633 74.3922 17.7077 74.4876 17.465C74.5916 17.2223 74.7302 17.0143 74.9036 16.841C75.0769 16.6677 75.2849 16.529 75.5276 16.425C75.7702 16.321 76.0302 16.269 76.3076 16.269C76.5849 16.269 76.8406 16.321 77.0746 16.425C77.3172 16.529 77.5252 16.6677 77.6986 16.841C77.8806 17.0143 78.0236 17.2223 78.1276 17.465C78.2316 17.7077 78.2836 17.9633 78.2836 18.232C78.2836 18.5093 78.2316 18.7693 78.1276 19.012C78.0236 19.246 77.8806 19.4497 77.6986 19.623C77.5252 19.7963 77.3172 19.9307 77.0746 20.026C76.8406 20.13 76.5849 20.182 76.3076 20.182C76.0302 20.182 75.7702 20.13 75.5276 20.026C75.2849 19.9307 75.0769 19.7963 74.9036 19.623C74.7302 19.4497 74.5916 19.246 74.4876 19.012C74.3922 18.7693 74.3446 18.5093 74.3446 18.232ZM84.3105 6.662V20H81.0865V6.662H84.3105ZM84.7525 2.775C84.7525 3.05233 84.6962 3.31233 84.5835 3.555C84.4708 3.79767 84.3192 4.01 84.1285 4.192C83.9465 4.374 83.7298 4.52133 83.4785 4.634C83.2272 4.738 82.9585 4.79 82.6725 4.79C82.3952 4.79 82.1308 4.738 81.8795 4.634C81.6368 4.52133 81.4245 4.374 81.2425 4.192C81.0605 4.01 80.9132 3.79767 80.8005 3.555C80.6965 3.31233 80.6445 3.05233 80.6445 2.775C80.6445 2.489 80.6965 2.22033 80.8005 1.969C80.9132 1.71767 81.0605 1.501 81.2425 1.319C81.4245 1.137 81.6368 0.993999 81.8795 0.89C82.1308 0.777333 82.3952 0.720999 82.6725 0.720999C82.9585 0.720999 83.2272 0.777333 83.4785 0.89C83.7298 0.993999 83.9465 1.137 84.1285 1.319C84.3192 1.501 84.4708 1.71767 84.5835 1.969C84.6962 2.22033 84.7525 2.489 84.7525 2.775ZM93.486 6.454C94.474 6.454 95.371 6.61433 96.177 6.935C96.9917 7.25567 97.685 7.71067 98.257 8.3C98.8377 8.88933 99.284 9.60867 99.596 10.458C99.908 11.3073 100.064 12.2563 100.064 13.305C100.064 14.3623 99.908 15.3157 99.596 16.165C99.284 17.0143 98.8377 17.738 98.257 18.336C97.685 18.934 96.9917 19.3933 96.177 19.714C95.371 20.0347 94.474 20.195 93.486 20.195C92.4894 20.195 91.5837 20.0347 90.769 19.714C89.9544 19.3933 89.2567 18.934 88.676 18.336C88.104 17.738 87.6577 17.0143 87.337 16.165C87.025 15.3157 86.869 14.3623 86.869 13.305C86.869 12.2563 87.025 11.3073 87.337 10.458C87.6577 9.60867 88.104 8.88933 88.676 8.3C89.2567 7.71067 89.9544 7.25567 90.769 6.935C91.5837 6.61433 92.4894 6.454 93.486 6.454ZM93.486 17.725C94.5954 17.725 95.4144 17.3523 95.943 16.607C96.4804 15.8617 96.749 14.7697 96.749 13.331C96.749 11.8923 96.4804 10.796 95.943 10.042C95.4144 9.288 94.5954 8.911 93.486 8.911C92.3594 8.911 91.523 9.29233 90.977 10.055C90.4397 10.809 90.171 11.901 90.171 13.331C90.171 14.761 90.4397 15.853 90.977 16.607C91.523 17.3523 92.3594 17.725 93.486 17.725Z" fill="#111518"/>
</svg>
